<svg width="128" height="128" viewBox="0 0 128 128" fill="none" xmlns="http://www.w3.org/2000/svg" role="img" aria-labelledby="title desc">
  <title id="title">GJP AI logo</title>
  <desc id="desc">A minimal circular GJP AI monogram.</desc>
  <circle cx="64" cy="64" r="58" fill="var(--logo-bg, #ffffff)"/>
  <circle cx="64" cy="64" r="55" stroke="var(--logo-ring, #dfe3eb)" stroke-width="3"/>
  <path d="M85.5 45.2C80.9 39.9 74 36.8 65.7 36.8C51 36.8 39.6 48 39.6 62.3C39.6 76.7 51 87.8 65.5 87.8C77.7 87.8 85.8 81.2 88 71.5H66.7V60.4H101C101.2 61.8 101.3 63.2 101.3 64.8C101.3 84.9 87.1 99.9 65.5 99.9C43.7 99.9 27.2 83.8 27.2 62.3C27.2 40.8 44.1 24.1 66.1 24.1C77.4 24.1 87.4 28.5 94.3 36.1L85.5 45.2Z" fill="var(--logo-fg, #111827)"/>
  <path d="M52 55H66.8C76.2 55 82.4 60.4 82.4 68.7C82.4 77 76.2 82.4 66.8 82.4H62.8V95H52V55ZM66 72.8C69.7 72.8 71.8 71.2 71.8 68.7C71.8 66.1 69.7 64.5 66 64.5H62.8V72.8H66Z" fill="var(--logo-bg, #ffffff)"/>
  <path d="M82 28H96V42" stroke="#14b8a6" stroke-width="4" stroke-linecap="round" stroke-linejoin="round"/>
  <circle cx="82" cy="28" r="5.5" fill="var(--logo-bg, #ffffff)" stroke="#14b8a6" stroke-width="3"/>
  <circle cx="96" cy="42" r="5.5" fill="#14b8a6"/>
</svg>
